<?xml version="1.0" standalone="no"?>
<!DOCTYPE svg PUBLIC "-//W3C//DTD SVG 20010904//EN"
 "http://www.w3.org/TR/2001/REC-SVG-20010904/DTD/svg10.dtd">
<svg version="1.0" xmlns="http://www.w3.org/2000/svg"
 width="700.000000pt" height="700.000000pt" viewBox="0 0 700.000000 700.000000"
 preserveAspectRatio="xMidYMid meet">
<metadata>
Created by potrace 1.11, written by Peter Selinger 2001-2013
</metadata>
<g transform="translate(0.000000,700.000000) scale(0.100000,-0.100000)"
fill="#000000" stroke="none">
<path d="M415 6985 c-160 -35 -282 -130 -357 -279 -60 -118 -58 -56 -58 -1663
l0 -1473 1106 0 1106 0 -34 41 c-140 172 -221 319 -265 484 -24 91 -27 116
-27 290 -1 206 16 315 71 469 191 533 697 901 1387 1008 119 18 183 22 411 22
309 0 482 -18 757 -80 228 -50 535 -161 525 -188 -2 -6 -59 -227 -127 -491
-68 -264 -124 -481 -125 -483 -1 -1 -53 22 -116 52 -171 81 -369 143 -581 183
-68 12 -145 17 -288 17 -188 1 -198 0 -275 -27 -189 -66 -270 -167 -270 -337
0 -76 3 -91 30 -139 67 -122 223 -209 655 -366 389 -141 593 -243 790 -396
l77 -59 825 0 c454 0 947 3 1097 7 l272 6 -3 1491 -3 1491 -23 65 c-61 169
-180 288 -341 342 l-66 23 -3045 2 c-2507 1 -3056 -1 -3105 -12z"/>
<path d="M2 1923 l3 -1508 22 -59 c60 -156 174 -270 328 -328 l60 -23 3040 -3
c2233 -2 3058 0 3108 9 151 25 300 133 372 270 68 129 65 49 65 1677 l0 1472
-1025 0 c-564 0 -1025 -2 -1025 -4 0 -3 21 -33 48 -68 93 -123 169 -298 209
-480 26 -120 26 -458 -1 -578 -39 -180 -116 -356 -217 -500 -160 -228 -450
-431 -775 -543 -584 -202 -1430 -192 -2088 24 -139 45 -356 140 -356 154 0 7
221 905 240 976 l11 39 97 -49 c245 -123 519 -212 822 -268 137 -25 474 -25
582 0 147 34 251 106 300 204 20 42 23 63 23 158 0 103 -2 113 -30 164 -58
106 -198 194 -455 289 -74 27 -200 73 -280 102 -240 88 -465 203 -633 324
l-78 56 -1185 0 -1184 0 2 -1507z"/>
</g>
</svg>
